<svg id="Layer_1" data-name="Layer 1" xmlns="http://www.w3.org/2000/svg" viewBox="0 0 328.97 315.91"><defs><style>.cls-1,.cls-4{fill:#fff;}.cls-2{fill:#009247;}.cls-3{fill:#ce2a37;}.cls-4{font-size:27px;font-family:Coves-Bold, Coves;font-weight:700;}</style></defs><title>ECA ALFI Logo_CMYK_Inverse</title><path class="cls-1" d="M42.92,37.63,57.07,51.78A117.11,117.11,0,0,1,133.55,20V0A136.59,136.59,0,0,0,42.92,37.63Z" transform="translate(27.76 9.18)"/><path class="cls-2" d="M0,133.07H20A117.07,117.07,0,0,1,52.25,56.58L38.1,42.43A136.54,136.54,0,0,0,0,133.07Z" transform="translate(27.76 9.18)"/><path class="cls-3" d="M140.34,0V20a117,117,0,0,1,77,31.25l14.15-14.15A136.48,136.48,0,0,0,140.34,0Z" transform="translate(27.76 9.18)"/><path class="cls-1" d="M100.79,142.11q-7.77.26-11.4.25-5.57,0-15.41-.27-2.07,2.27-5.05,5.34t-5.64,5.7q-2.66,2.62-4.57,4.47t-3.14,3.07q-7.19,7-9.36,9.13a38.37,38.37,0,0,1-4.57,3.85,7.77,7.77,0,0,1-4.4,1.71q-2.27,0-2.27-2.07,0-2.27,3.24-7a45.64,45.64,0,0,1,7.32-8.35q4.08-3.62,6.67-3.62a5,5,0,0,1,2,.65l12.31-13.14a56.79,56.79,0,0,0-6.09-.42,19.69,19.69,0,0,1-5.05-.55,2,2,0,0,1-1.29-2.2q0-2.78,6-8.74a15.67,15.67,0,0,1,6.09-4.21q2.85-.9,10.88-1a27.52,27.52,0,0,0-6.7,1.52,3.23,3.23,0,0,0-2.17,2.62h3.46l4.14,0q2.56,0,3.79-.1,10.62-10.35,19.31-18a229.34,229.34,0,0,1,18.3-14.56,178.56,178.56,0,0,1,20.5-12.65,9.44,9.44,0,0,1,2.13,5.83,13.37,13.37,0,0,1-1.65,5.83q-1.65,3.3-7,12.4T120.29,126.9q1.81,0,3,0l2.56.1a43,43,0,0,1,4.5.13c.54.09.81.52.81,1.3a4.18,4.18,0,0,1-1,1.84q-1,1.33-3.53,4.4T121.71,141l-9.52.77q-7.58,14.24-7.59,16.06,0,2.66,2.78,2.66,1.36,0,11.27-5.69l-.52,3.43q-5.31,4-8.26,6.31t-5.12,3.82a21.61,21.61,0,0,1-4,2.26,9.27,9.27,0,0,1-3.59.74,6.14,6.14,0,0,1-4.21-2,7.37,7.37,0,0,1-2.07-5.6,12.54,12.54,0,0,1,1.1-4.24q1.1-2.75,2.37-5.28T100.79,142.11ZM88.56,127.4l21-.38q3.69-6.28,6-10.16t5.06-8.45q2.75-4.56,4.73-7.74t4.37-7.19Q125,96.4,120.18,100t-10.95,8.57q-6.09,5-10.82,9.32T88.56,127.4Z" transform="translate(27.76 9.18)"/><path class="cls-1" d="M159.26,147.71v4.79q-13.54,17.93-22,17.93-4.6,0-7.22-5t-2.62-13.18a49.83,49.83,0,0,1,3.12-15.7,113.26,113.26,0,0,1,8.33-18.45,116.22,116.22,0,0,1,10.82-16.31q5.6-7,10.4-9.74a6.62,6.62,0,0,1,3-1.16,1.76,1.76,0,0,1,1.81,1.2,13,13,0,0,1,.45,4.11q0,9-7.33,22.11A133.39,133.39,0,0,1,137.64,145a29.6,29.6,0,0,0-.65,5.18,11.64,11.64,0,0,0,1.78,6.74,5.68,5.68,0,0,0,5,2.59,6.38,6.38,0,0,0,3.5-1.26,35.27,35.27,0,0,0,4-3.14Q153.24,153.27,159.26,147.71ZM139.91,136a64.7,64.7,0,0,0,6.51-7.51,94,94,0,0,0,5.93-9,74,74,0,0,0,4.38-8.61,16.87,16.87,0,0,0,1.59-5.76q0-1.49-1-1.49a3.78,3.78,0,0,0-1.49.71q-4,3.24-8.88,12.65A75.41,75.41,0,0,0,139.91,136Z" transform="translate(27.76 9.18)"/><path class="cls-1" d="M194.75,148.44v4.47q-3.89,3.88-5.9,5.63a28.27,28.27,0,0,1-5.51,3.56,73.53,73.53,0,0,1-.59,10,33.28,33.28,0,0,1-2.59,8.71,49.14,49.14,0,0,1-6.22,10,40.57,40.57,0,0,1-8.16,8.25q-4,2.88-6.28,2.88-2.53,0-4.66-4.15a22.31,22.31,0,0,1-2.13-10.3,42.41,42.41,0,0,1,2-12.43q2-6.54,6.23-16.9a13.53,13.53,0,0,1-3.17-8.23,7,7,0,0,1,1.69-5,15.65,15.65,0,0,1,4.79-3.17,63.36,63.36,0,0,1,4.31-6.05q2-2.49,5.54-6.63A266.64,266.64,0,0,1,189.92,96.7q2.53-4.4,3.63-5.92a3,3,0,0,1,2.33-1.52q1.1,0,1.94,1.62a9.13,9.13,0,0,1,.84,4.21,23.46,23.46,0,0,1-.68,5.83,30.12,30.12,0,0,1-1.95,5.34q-1.26,2.69-3.5,6.44t-2.75,4.66q-3.24,5.7-7.32,12.62L176,140.92q-2.37,4-3.4,6a73.93,73.93,0,0,1,5.53,5.25,21.7,21.7,0,0,1,3.53,5.25,21.78,21.78,0,0,0,4-2,45.73,45.73,0,0,0,4.28-3.2Q192.42,150.19,194.75,148.44Zm-19.37,17.34-.13-1.36a15.68,15.68,0,0,1-2.91.1,12.44,12.44,0,0,1-2.56-.55,17.31,17.31,0,0,1-2.27-.84q-.81-.39-1.78-.78-4.93,12-4.93,20a17,17,0,0,0,1.19,6.74q1.2,2.78,2.82,2.79t4.24-3a25.67,25.67,0,0,0,4.44-8.8A47.16,47.16,0,0,0,175.38,165.78Z" transform="translate(27.76 9.18)"/><path class="cls-1" d="M225.57,148.46v4.73a66.12,66.12,0,0,1-11.73,12.2q-5.44,4.11-9.26,4.11-5.31,0-7.9-5.57a28.5,28.5,0,0,1-2.58-12.18,21.84,21.84,0,0,1,.52-4.82,18.11,18.11,0,0,1,1.23-3.79q.71-1.49,2.66-4.66,9.2-14.31,16.84-14.3,3.95,0,3.95,3,0,2.07-2.56,6.47a28.49,28.49,0,0,1-4.57,6.28,102.26,102.26,0,0,0-7.35,7.57,7.54,7.54,0,0,0-1.72,4.86,5,5,0,0,0,1.75,3.89,6.57,6.57,0,0,0,4.53,1.56,13.1,13.1,0,0,0,6.7-2.23A82.59,82.59,0,0,0,225.57,148.46Zm-4.39-28.95a4.7,4.7,0,0,1-3.08-1.23,3.89,3.89,0,0,1-1.46-3.11q0-2.85,2.72-6.34t5.64-3.49a4.59,4.59,0,0,1,3.24,1.2,4.49,4.49,0,0,1,1.29,3.47q0,2.79-2.66,6.15T221.19,119.51Z" transform="translate(27.76 9.18)"/><text class="cls-4" transform="matrix(0.66, 0.79, -0.77, 0.64, 248.92, 63.5)">M</text><text class="cls-4" transform="matrix(0.51, 0.89, -0.87, 0.5, 262.27, 79.71)">A</text><text class="cls-4" transform="translate(271.73 96.27) rotate(68.63) scale(1.02 1)">C</text><text class="cls-4" transform="translate(277.91 112.14) rotate(76.93) scale(1.02 1)">C</text><text class="cls-4" transform="translate(281.81 128.7) rotate(85.81) scale(1.02 1)">H</text><text class="cls-4" transform="translate(282.86 148.03) rotate(92.48) scale(1.02 1)">I</text><text class="cls-4" transform="matrix(-0.16, 1.01, -0.99, -0.16, 282.81, 155.92)">N</text><text class="cls-4" transform="matrix(-0.32, 0.97, -0.95, -0.31, 279.75, 174.81)">A</text><text class="cls-4" transform="translate(273.38 192.94) rotate(114.76) scale(1.02 1)"> </text><text class="cls-4" transform="translate(270.44 199.85) rotate(120.78) scale(1.02 1)">P</text><text class="cls-4" transform="translate(261.76 214.33) rotate(129) scale(1.02 1)">E</text><text class="cls-4" transform="translate(251.26 227.26) rotate(137.19) scale(1.02 1)">R</text><text class="cls-4" transform="matrix(-0.82, 0.61, -0.6, -0.8, 238.52, 238.68)"> </text><text class="cls-4" transform="matrix(-0.86, 0.56, -0.55, -0.84, 232.37, 243.26)">I</text><text class="cls-4" transform="matrix(-0.91, 0.47, -0.46, -0.89, 225.76, 247.71)">L</text><text class="cls-4" transform="matrix(-0.95, 0.39, -0.38, -0.93, 212.58, 254.35)"> </text><text class="cls-4" transform="matrix(-0.98, 0.28, -0.28, -0.96, 205.7, 257.38)">C</text><text class="cls-4" transform="matrix(-1.02, 0.13, -0.13, -0.99, 189.38, 262.14)">A</text><text class="cls-4" transform="translate(170.43 264.38) rotate(-178.93) scale(1.02 1)">F</text><text class="cls-4" transform="matrix(-1.01, -0.15, 0.15, -0.99, 155.36, 264.06)">F</text><text class="cls-4" transform="translate(140.49 261.88) rotate(-163.98) scale(1.02 1)">È</text><text class="cls-4" transform="translate(124.4 256.98) rotate(-158.07) scale(1.02 1)"> </text><text class="cls-4" transform="matrix(-0.91, -0.48, 0.47, -0.88, 117.37, 254.38)">E</text><text class="cls-4" transform="matrix(-0.83, -0.6, 0.58, -0.81, 102.66, 246.5)">S</text><text class="cls-4" transform="matrix(-0.74, -0.71, 0.69, -0.72, 90.22, 237.59)">P</text><text class="cls-4" transform="translate(78.02 225.93) rotate(-128.2) scale(1.02 1)">R</text><text class="cls-4" transform="translate(67.56 212.56) rotate(-120.06) scale(1.02 1)">E</text><text class="cls-4" transform="matrix(-0.39, -0.95, 0.93, -0.38, 59.28, 198.1)">S</text><text class="cls-4" transform="matrix(-0.26, -0.99, 0.97, -0.26, 53.49, 183.89)">S</text><text class="cls-4" transform="matrix(-0.1, -1.02, 1, -0.1, 49.34, 169.22)">O</text></svg>
