<svg id="e4fad400-c01d-4039-99e6-ff84e9d87693" data-name="Layer 1" xmlns="http://www.w3.org/2000/svg" viewBox="0 0 275.1 275.2"><defs><style>.ec04a7b3-7b13-4aed-b7b0-388febb0ebff{fill:#353535;}.\33 30ed8d4-6c10-49fd-b3c5-a646d80d7bc6{fill:#fff;stroke:#231f20;stroke-miterlimit:10;stroke-width:0.25px;}.\37 3283644-04a6-44be-94d6-ed227b9b1175{fill:#009247;}.b13f6118-3bd4-4fde-98c6-52c475a312a9{fill:#ce2a37;}</style></defs><title>ECA ALFI Tick</title><path class="ec04a7b3-7b13-4aed-b7b0-388febb0ebff" d="M275,133.07a136.54,136.54,0,0,0-38.64-91.19L222.2,56A117.11,117.11,0,0,1,255,133.07c.06,1.48.09,3,.09,4.46,0,.78,0,1.56,0,2.33A117.55,117.55,0,0,1,56,222.24q-2.46-2.36-4.76-4.86A117,117,0,0,1,20,139.86H0a136.52,136.52,0,0,0,37.12,91.67c1,1.11,2.08,2.2,3.15,3.27.54.54,1.08,1.07,1.62,1.58A137.55,137.55,0,0,0,275,139.86c0-.78,0-1.55,0-2.33C275,136,275,134.55,275,133.07Z" transform="translate(0.05 0.11)"/><path class="330ed8d4-6c10-49fd-b3c5-a646d80d7bc6" d="M42.92,37.63,57.07,51.78A117.11,117.11,0,0,1,133.55,20V0A136.59,136.59,0,0,0,42.92,37.63Z" transform="translate(0.05 0.11)"/><path class="73283644-04a6-44be-94d6-ed227b9b1175" d="M0,133.07H20A117.07,117.07,0,0,1,52.25,56.58L38.1,42.43A136.54,136.54,0,0,0,0,133.07Z" transform="translate(0.05 0.11)"/><path class="b13f6118-3bd4-4fde-98c6-52c475a312a9" d="M140.34,0V20a117,117,0,0,1,77,31.25l14.15-14.15A136.48,136.48,0,0,0,140.34,0Z" transform="translate(0.05 0.11)"/><polygon class="ec04a7b3-7b13-4aed-b7b0-388febb0ebff" points="146.52 196.44 146.66 196.54 130.26 220.29 49.63 164.58 66.03 140.84 122.47 179.83 197.36 73.14 221.28 89.93 146.52 196.44"/></svg>