<?xml version="1.0" encoding="utf-8"?>
<!-- Generator: Adobe Illustrator 21.1.0, SVG Export Plug-In . SVG Version: 6.00 Build 0)  -->
<svg version="1.1" id="Layer_1" xmlns="http://www.w3.org/2000/svg" xmlns:xlink="http://www.w3.org/1999/xlink" x="0px" y="0px"
	 viewBox="0 0 329 315.9" style="enable-background:new 0 0 329 315.9;" xml:space="preserve">
<style type="text/css">
	.st0{fill:#FFFFFF;}
	.st1{fill:#009247;}
	.st2{fill:#CE2A37;}
	.st3{enable-background:new    ;}
</style>
<title>ECA ALFI Logo_CMYK_Inverse</title>
<path class="st0" d="M70.7,46.8L84.8,61c20.8-19.6,48-30.9,76.5-31.8v-20C127.5,10.1,95.2,23.5,70.7,46.8z"/>
<path class="st1" d="M27.8,142.3h20c1-28.6,12.5-55.8,32.3-76.5L65.9,51.6C42.3,76,28.8,108.4,27.8,142.3z"/>
<path class="st2" d="M168.1,9.2v20c28.6,0.6,56,11.8,77,31.3l14.2-14.2C234.5,23,202,9.8,168.1,9.2z"/>
<path class="st0" d="M128.6,151.3c-5.2,0.2-9,0.3-11.4,0.3c-3.7,0-8.8-0.1-15.4-0.3c-1.4,1.5-3.1,3.3-5.1,5.3s-3.9,3.9-5.6,5.7
	c-1.8,1.7-3.3,3.2-4.6,4.5c-1.3,1.2-2.3,2.3-3.1,3.1c-4.8,4.7-7.9,7.7-9.4,9.1c-1.4,1.4-2.9,2.7-4.6,3.9c-1.3,1-2.8,1.6-4.4,1.7
	c-1.5,0-2.3-0.7-2.3-2.1c0-1.5,1.1-3.8,3.2-7c2.1-3.1,4.5-5.9,7.3-8.4c2.7-2.4,4.9-3.6,6.7-3.6c0.7,0.1,1.4,0.3,2,0.6L94.3,151
	c-2-0.2-4.1-0.4-6.1-0.4c-1.7,0-3.4-0.1-5-0.6c-0.9-0.3-1.4-1.3-1.3-2.2c0-1.9,2-4.8,6-8.7c1.7-1.9,3.8-3.3,6.1-4.2
	c1.9-0.6,5.5-0.9,10.9-1c-2.3,0.2-4.5,0.7-6.7,1.5c-1.2,0.4-2,1.4-2.2,2.6h3.5h4.1c1.7,0,3,0,3.8-0.1c7.1-6.9,13.5-12.9,19.3-18
	c5.8-5.2,12-10,18.3-14.6c6.5-4.7,13.4-8.9,20.5-12.7c1.3,1.6,2.1,3.7,2.1,5.8c-0.1,2-0.7,4-1.6,5.8c-1.1,2.2-3.4,6.3-7,12.4
	c-3.6,6.1-7.2,12.5-10.9,19.3c1.2,0,2.2,0,3,0l2.6,0.1c1.5,0,3,0,4.5,0.1c0.5,0.1,0.8,0.5,0.8,1.3c-0.2,0.7-0.5,1.3-1,1.8
	c-0.7,0.9-1.8,2.4-3.5,4.4s-3.3,4.2-4.9,6.3l-9.5,0.8c-5.1,9.5-7.6,14.8-7.6,16.1c0,1.8,0.9,2.7,2.8,2.7c0.9,0,4.7-1.9,11.3-5.7
	l-0.5,3.4c-3.5,2.7-6.3,4.8-8.3,6.3c-2,1.5-3.7,2.8-5.1,3.8c-1.2,0.9-2.6,1.7-4,2.3c-1.1,0.5-2.4,0.7-3.6,0.7
	c-1.6-0.1-3.1-0.8-4.2-2c-1.4-1.5-2.2-3.5-2.1-5.6c0.1-1.5,0.5-2.9,1.1-4.2c0.7-1.8,1.5-3.6,2.4-5.3
	C123,161.7,125.1,157.7,128.6,151.3z M116.3,136.6l21-0.4c2.5-4.2,4.5-7.6,6-10.2c1.5-2.6,3.2-5.4,5.1-8.4c1.8-3,3.4-5.6,4.7-7.7
	c1.3-2.1,2.8-4.5,4.4-7.2c-3.1,1.9-6.3,4.1-9.5,6.5s-6.9,5.3-10.9,8.6c-4.1,3.3-7.7,6.4-10.8,9.3S119.7,133.1,116.3,136.6z"/>
<path class="st0" d="M187,156.9v4.8c-9,12-16.4,17.9-22,17.9c-3.1,0-5.5-1.7-7.2-5c-1.7-3.3-2.6-7.7-2.6-13.2
	c0.2-5.4,1.2-10.7,3.1-15.7c2.2-6.4,5-12.6,8.3-18.5c3.1-5.7,6.8-11.2,10.8-16.3c3.7-4.7,7.2-7.9,10.4-9.7c0.9-0.6,1.9-1,3-1.2
	c0.8-0.1,1.6,0.4,1.8,1.2c0.4,1.3,0.5,2.7,0.4,4.1c0,6-2.4,13.4-7.3,22.1c-5.6,9.7-12.5,18.7-20.4,26.7c-0.4,1.7-0.6,3.4-0.6,5.2
	c-0.1,2.4,0.5,4.7,1.8,6.7c1.1,1.7,3,2.7,5,2.6c1.3-0.1,2.5-0.5,3.5-1.3c1.4-0.9,2.7-2,4-3.1C180.3,163.1,183,160.6,187,156.9z
	 M167.7,145.2c2.4-2.3,4.5-4.8,6.5-7.5c2.1-2.9,4.1-5.9,5.9-9c1.6-2.8,3.1-5.6,4.4-8.6c0.9-1.8,1.4-3.8,1.6-5.8c0-1-0.3-1.5-1-1.5
	c-0.5,0.1-1.1,0.4-1.5,0.7c-2.7,2.2-5.6,6.4-8.9,12.7C171.5,132.2,169.2,138.6,167.7,145.2z"/>
<path class="st0" d="M222.5,157.6v4.5c-2.6,2.6-4.6,4.5-5.9,5.6c-1.7,1.4-3.5,2.6-5.5,3.6c0,3.3-0.2,6.7-0.6,10
	c-0.5,3-1.3,5.9-2.6,8.7c-1.7,3.6-3.8,6.9-6.2,10c-2.3,3.1-5.1,5.9-8.2,8.3c-2.7,1.9-4.8,2.9-6.3,2.9c-1.7,0-3.2-1.4-4.7-4.1
	c-1.5-3.2-2.3-6.7-2.1-10.3c0-4.2,0.7-8.4,2-12.4c1.3-4.4,3.4-10,6.2-16.9c-1.9-2.3-3.1-5.2-3.2-8.2c-0.1-1.8,0.5-3.6,1.7-5
	c1.4-1.3,3-2.4,4.8-3.2c1.3-2.1,2.8-4.1,4.3-6.1c1.3-1.7,3.2-3.9,5.5-6.6c4.5-11.1,9.8-22,15.8-32.4c1.7-2.9,2.9-4.9,3.6-5.9
	c0.5-0.9,1.4-1.4,2.3-1.5c0.7,0,1.4,0.5,1.9,1.6c0.6,1.3,0.9,2.8,0.8,4.2c0,2-0.2,3.9-0.7,5.8c-0.5,1.8-1.1,3.6-1.9,5.3
	c-0.8,1.8-2,3.9-3.5,6.4c-1.5,2.5-2.4,4.1-2.8,4.7c-2.2,3.8-4.6,8-7.3,12.6l-6.5,10.9c-1.6,2.7-2.7,4.7-3.4,6
	c1.9,1.7,3.8,3.4,5.5,5.3c1.4,1.6,2.6,3.3,3.5,5.3c1.4-0.5,2.7-1.2,4-2c1.5-1,2.9-2.1,4.3-3.2C219.4,160,221,158.8,222.5,157.6z
	 M203.1,175l-0.1-1.4c-1,0.1-1.9,0.2-2.9,0.1c-0.9-0.1-1.7-0.3-2.6-0.6c-0.8-0.2-1.5-0.5-2.3-0.8c-0.5-0.3-1.1-0.5-1.8-0.8
	c-3.3,8-4.9,14.7-4.9,20c-0.1,2.3,0.3,4.6,1.2,6.7c0.8,1.9,1.7,2.8,2.8,2.8c1.1,0,2.5-1,4.2-3c2-2.6,3.5-5.6,4.4-8.8
	C202.6,184.6,203.2,179.8,203.1,175z"/>
<path class="st0" d="M253.3,157.6v4.7c-3.4,4.6-7.3,8.7-11.7,12.2c-3.6,2.7-6.7,4.1-9.3,4.1c-3.5,0-6.2-1.9-7.9-5.6
	c-1.7-3.8-2.6-8-2.6-12.2c0-1.6,0.2-3.2,0.5-4.8c0.3-1.3,0.7-2.6,1.2-3.8c0.5-1,1.4-2.5,2.7-4.7c6.1-9.5,11.7-14.3,16.8-14.3
	c2.6,0,3.9,1,3.9,3c0,1.4-0.9,3.5-2.6,6.5c-1.2,2.3-2.8,4.4-4.6,6.3c-2.6,2.4-5,4.9-7.4,7.6c-1.1,1.4-1.7,3.1-1.7,4.9
	c0,1.5,0.6,2.9,1.8,3.9c1.3,1.1,2.9,1.6,4.5,1.6c2.4-0.1,4.7-0.9,6.7-2.2C247.2,162.6,250.3,160.2,253.3,157.6z M248.9,128.7
	c-1.1,0-2.2-0.5-3.1-1.2c-0.9-0.8-1.5-1.9-1.5-3.1c0-1.9,0.9-4,2.7-6.3c1.8-2.3,3.7-3.5,5.6-3.5c1.2,0,2.4,0.4,3.2,1.2
	c0.9,0.9,1.4,2.2,1.3,3.5c0,1.9-0.9,3.9-2.7,6.2S251,128.7,248.9,128.7L248.9,128.7z"/>
<g class="st3">
	<path class="st0" d="M275.1,65.3c0.1,0.1,0.1,0.2,0,0.2l-14.3,11.9c-0.1,0.1-0.2,0.1-0.2,0l-1.3-1.5c-0.1-0.1-0.1-0.2,0-0.2l10.8-9
		l-8.1-0.4c-0.1,0-0.2-0.1-0.2-0.2l1.1-8L252.1,67c-0.1,0.1-0.2,0.1-0.2,0l-1.3-1.5c-0.1-0.1-0.1-0.2,0-0.2l14.3-11.9
		c0.1-0.1,0.2-0.1,0.2,0l0.5,0.6c0.1,0.1,0.1,0.2,0.1,0.4l-1.3,9.7l9.8,0.5c0.1,0,0.3,0.1,0.3,0.2L275.1,65.3z"/>
</g>
<g class="st3">
	<path class="st0" d="M283.8,79.1c0,0.1,0,0.1,0,0.2l-12.2,16.2c0,0-0.1,0.1-0.1,0.1c-0.1,0-0.1,0-0.1-0.1l-1.1-1.9
		c0-0.1,0-0.1,0-0.2L275,87l-3.4-5.9l-7.9,1c-0.1,0-0.1,0-0.2-0.1l-1.1-1.9c0-0.1,0-0.1,0-0.2c0-0.1,0.1-0.1,0.1-0.1l20.1-2.4
		c0.1,0,0.1,0,0.2,0.1L283.8,79.1z M276.5,85l3.8-5l-6.2,0.7L276.5,85z"/>
</g>
<g class="st3">
	<path class="st0" d="M279.2,110.6c-0.1,0.1-0.1,0.1-0.2,0c-1.5-1.1-2.6-2.6-3.3-4.3c-0.5-1.3-0.7-2.5-0.7-3.9
		c0-1.3,0.3-2.5,0.9-3.7c1.1-2.5,3-4.2,5.6-5c2.2-0.7,4.4-0.6,6.6,0.3c2.2,1,3.8,2.5,4.9,4.7c1,2,1.2,4,0.8,6.1
		c0,0.1-0.1,0.2-0.2,0.1l-2-0.5c-0.1,0-0.2-0.1-0.1-0.2c0.3-1.6,0.1-3.1-0.6-4.5c-0.8-1.7-2.1-2.8-3.8-3.5c-1.7-0.7-3.4-0.7-5.1-0.1
		c-1.8,0.7-3.1,1.9-3.9,3.8c-0.8,1.8-0.8,3.7-0.1,5.5c0.5,1.3,1.3,2.4,2.5,3.2c0.1,0.1,0.1,0.2,0,0.2L279.2,110.6z"/>
</g>
<g class="st3">
	<path class="st0" d="M283.3,127.4c-0.1,0.1-0.2,0.1-0.2,0c-1.4-1.3-2.2-2.9-2.7-4.8c-0.3-1.3-0.3-2.6-0.1-3.9
		c0.2-1.3,0.7-2.4,1.4-3.5c1.5-2.3,3.6-3.7,6.3-4.2c2.3-0.4,4.5,0,6.5,1.3c2,1.3,3.4,3,4.1,5.3c0.7,2.1,0.6,4.2-0.1,6.2
		c0,0.1-0.1,0.1-0.2,0.1l-1.9-0.8c-0.1,0-0.1-0.1-0.1-0.2c0.5-1.5,0.5-3,0.1-4.6c-0.6-1.7-1.6-3.1-3.2-4c-1.6-0.9-3.3-1.2-5-0.8
		c-1.9,0.4-3.4,1.5-4.4,3.2c-1,1.7-1.3,3.5-0.9,5.4c0.3,1.4,1,2.6,2,3.5c0.1,0.1,0.1,0.2,0,0.2L283.3,127.4z"/>
</g>
<g class="st3">
	<path class="st0" d="M301.8,143.4c0,0.1,0,0.2-0.2,0.2l-18.5,1.4c-0.1,0-0.2,0-0.2-0.2l-0.2-2.1c0-0.1,0-0.2,0.2-0.2l8.1-0.6
		l-0.7-9l-8,0.6c-0.1,0-0.2,0-0.2-0.2l-0.2-2.1c0-0.1,0-0.2,0.2-0.2l18.5-1.4c0.1,0,0.2,0,0.2,0.2l0.2,2.1c0,0.1,0,0.2-0.2,0.2
		l-8,0.6l0.7,9l8-0.6c0.1,0,0.2,0,0.2,0.2L301.8,143.4z"/>
</g>
<g class="st3">
	<path class="st0" d="M301.5,153.5c0,0.1-0.1,0.2-0.2,0.2l-18.5-0.8c-0.1,0-0.2-0.1-0.2-0.2l0.1-2.1c0-0.1,0.1-0.2,0.2-0.2l18.5,0.8
		c0.1,0,0.2,0.1,0.2,0.2L301.5,153.5z"/>
</g>
<g class="st3">
	<path class="st0" d="M299,174.8c0,0.1-0.1,0.2-0.2,0.1l-18.4-3c-0.1,0-0.2-0.1-0.1-0.2l0.1-0.9c0-0.1,0-0.1,0.1-0.1l14.9-8
		l-13.2-2.1c-0.1,0-0.2-0.1-0.1-0.2l0.3-2c0-0.1,0.1-0.2,0.2-0.1l18.4,3c0.1,0,0.2,0.1,0.1,0.2l-0.1,0.9c0,0.1,0,0.1-0.1,0.1
		l-15,8.1l13.3,2.1c0.1,0,0.2,0.1,0.1,0.2L299,174.8z"/>
</g>
<g class="st3">
	<path class="st0" d="M294.5,190.3c0,0.1-0.1,0.1-0.2,0.1l-20.1,1.7c-0.1,0-0.1,0-0.1-0.1c0-0.1,0-0.1,0-0.2l0.7-2
		c0-0.1,0.1-0.1,0.1-0.1l7.9-0.7l2.1-6.5l-5.9-5.2c-0.1,0-0.1-0.1,0-0.2l0.7-2c0-0.1,0.1-0.1,0.1-0.1c0.1,0,0.1,0,0.2,0l15.2,13.2
		c0.1,0.1,0.1,0.1,0.1,0.2L294.5,190.3z M285.3,188.9l6.2-0.5l-4.7-4.1L285.3,188.9z"/>
</g>
<g class="st3">
	<path class="st0" d="M281.7,217.8c-0.8,1.3-1.9,2.2-3.4,2.6c-1.5,0.4-2.9,0.2-4.2-0.7c-1.2-0.8-2-1.9-2.3-3.4
		c-0.3-1.5-0.1-2.8,0.7-4.1l2.4-4.1l-6.8-4.1c-0.1-0.1-0.1-0.1-0.1-0.2l1.1-1.8c0.1-0.1,0.1-0.1,0.2-0.1l15.9,9.5
		c0.1,0.1,0.1,0.1,0,0.2L281.7,217.8z M274.6,213.5c-0.4,0.7-0.5,1.5-0.4,2.3c0.2,0.8,0.6,1.4,1.3,1.8c0.7,0.4,1.5,0.5,2.3,0.3
		c0.8-0.2,1.4-0.7,1.8-1.4l2.5-4.1l-5.1-3L274.6,213.5z"/>
</g>
<g class="st3">
	<path class="st0" d="M267,237.9c-0.1,0.1-0.2,0.1-0.2,0l-1.6-1.3c-0.1-0.1-0.1-0.2,0-0.2l6.4-8l-4.5-3.7l-4.7,5.8
		c-0.1,0.1-0.2,0.1-0.2,0l-1.6-1.3c-0.1-0.1-0.1-0.2,0-0.2l4.7-5.8l-4.5-3.7l-6.4,8c-0.1,0.1-0.2,0.1-0.2,0l-1.6-1.3
		c-0.1-0.1-0.1-0.2,0-0.2l7.9-9.7c0.1-0.1,0.2-0.1,0.2,0l14.4,11.7c0.1,0.1,0.1,0.2,0,0.2L267,237.9z"/>
</g>
<g class="st3">
	<path class="st0" d="M240.2,237.9c-0.1,0-0.1-0.1-0.1-0.1c0-0.1,0-0.1,0.1-0.2l1.8-1.6c0.1,0,0.1-0.1,0.2,0l8.8,2.9l0,0l2.4-2.3
		l-5.4-5.9c-0.1-0.1-0.1-0.2,0-0.2l1.5-1.4c0.1-0.1,0.2-0.1,0.2,0l12.6,13.6c0.1,0.1,0.1,0.2,0,0.2l-5.2,4.8c-1.1,1-2.5,1.5-4,1.5
		c-1.5-0.1-2.8-0.7-3.8-1.8c-0.8-0.9-1.2-2-1.3-3.2c0-1.2,0.3-2.3,1-3.4L240.2,237.9z M251.4,241.5c-0.6,0.6-0.9,1.3-1,2.1
		c0,0.8,0.2,1.5,0.8,2.1c0.6,0.6,1.2,0.9,2.1,0.9c0.8,0,1.5-0.3,2.2-0.8l3.5-3.3l-4-4.3L251.4,241.5z"/>
</g>
<g class="st3">
	<path class="st0" d="M238.9,261.7c-0.1,0.1-0.2,0-0.2,0L228.4,246c-0.1-0.1,0-0.2,0.1-0.2l1.8-1.2c0.1-0.1,0.2,0,0.2,0l10.2,15.6
		c0.1,0.1,0,0.2-0.1,0.2L238.9,261.7z"/>
</g>
<g class="st3">
	<path class="st0" d="M215.1,255.9c-0.1,0.1-0.2,0-0.2-0.1l-1-1.8c-0.1-0.1,0-0.2,0.1-0.2l9.5-4.9c0.1-0.1,0.2,0,0.2,0.1l8.5,16.5
		c0.1,0.1,0,0.2-0.1,0.2l-1.9,1c-0.1,0.1-0.2,0-0.2-0.1l-7.5-14.5L215.1,255.9z"/>
</g>
<g class="st3">
	<path class="st0" d="M190.8,263.5c-0.1-0.1-0.1-0.2,0-0.2c1.2-1.4,2.8-2.4,4.6-2.9c1.3-0.4,2.6-0.5,3.9-0.3
		c1.3,0.2,2.5,0.6,3.6,1.2c2.4,1.4,3.9,3.4,4.5,6c0.5,2.3,0.2,4.5-0.9,6.6c-1.1,2.1-2.8,3.6-5.1,4.4c-2.1,0.8-4.1,0.8-6.2,0.2
		c-0.1,0-0.2-0.1-0.1-0.2l0.7-2c0-0.1,0.1-0.2,0.2-0.1c1.5,0.4,3.1,0.4,4.6-0.2c1.7-0.6,3-1.8,3.9-3.4c0.8-1.6,1-3.3,0.6-5.1
		c-0.5-1.9-1.7-3.3-3.4-4.3c-1.7-1-3.6-1.2-5.5-0.6c-1.4,0.4-2.5,1.1-3.4,2.1c-0.1,0.1-0.2,0.1-0.2,0L190.8,263.5z"/>
</g>
<g class="st3">
	<path class="st0" d="M181.7,282.2c-0.1,0-0.1,0-0.2-0.1l-10.3-17.4c0,0,0-0.1,0-0.2c0-0.1,0.1-0.1,0.1-0.1l2.2-0.3
		c0.1,0,0.1,0,0.2,0.1l4,6.8l6.8-0.9l2.1-7.6c0-0.1,0.1-0.1,0.1-0.1l2.2-0.3c0.1,0,0.1,0,0.2,0.1c0,0,0.1,0.1,0,0.2l-5.5,19.4
		c0,0.1-0.1,0.1-0.1,0.1L181.7,282.2z M179,273.2l3.2,5.4l1.7-6L179,273.2z"/>
</g>
<g class="st3">
	<path class="st0" d="M165.3,280.8l0.1-5.8l-7.3-0.1c-0.1,0-0.2-0.1-0.2-0.2l0-2.1c0-0.1,0.1-0.2,0.2-0.2l7.3,0.1l0.2-8.1
		c0-0.1,0.1-0.2,0.2-0.2l2.1,0c0.1,0,0.2,0.1,0.2,0.2l-0.3,18.6c0,0.1-0.1,0.2-0.2,0.2l-11.7-0.2c-0.1,0-0.2-0.1-0.2-0.2l0-2.1
		c0-0.1,0.1-0.2,0.2-0.2L165.3,280.8z"/>
</g>
<g class="st3">
	<path class="st0" d="M148.1,279.7l0.9-5.8l-7.2-1.1c-0.1,0-0.2-0.1-0.1-0.2l0.3-2c0-0.1,0.1-0.2,0.2-0.1l7.2,1.1l1.2-8
		c0-0.1,0.1-0.2,0.2-0.1l2.1,0.3c0.1,0,0.2,0.1,0.1,0.2l-2.8,18.4c0,0.1-0.1,0.2-0.2,0.1l-11.6-1.7c-0.1,0-0.2-0.1-0.1-0.2l0.3-2
		c0-0.1,0.1-0.2,0.2-0.1L148.1,279.7z"/>
</g>
<g class="st3">
	<path class="st0" d="M120.8,275.9c-0.1,0-0.2-0.1-0.1-0.2l0.6-2c0-0.1,0.1-0.1,0.2-0.1l9.8,2.8l1.6-5.6l-7.1-2
		c-0.1,0-0.2-0.1-0.1-0.2l0.6-2c0-0.1,0.1-0.1,0.2-0.1l7.1,2l1.6-5.6l-9.8-2.8c-0.1,0-0.2-0.1-0.1-0.2l0.6-2c0-0.1,0.1-0.1,0.2-0.1
		l12,3.5c0.1,0,0.2,0.1,0.1,0.2l-5.1,17.8c0,0.1-0.1,0.1-0.2,0.1L120.8,275.9z M128.3,282.8c0.1,0,0.2,0,0.2-0.1l0.8-1.7
		c0-0.1,0-0.2-0.1-0.2l-5.5-2.5c-0.1,0-0.2,0-0.2,0.1l-0.8,1.7c0,0.1,0,0.2,0.1,0.2L128.3,282.8z"/>
</g>
<g class="st3">
	<path class="st0" d="M95.1,263.9c-0.1-0.1-0.1-0.1-0.1-0.2l1-1.8c0.1-0.1,0.1-0.1,0.2-0.1l9.1,4.8l2.7-5.1l-6.6-3.5
		c-0.1-0.1-0.1-0.1-0.1-0.2l1-1.8c0.1-0.1,0.1-0.1,0.2-0.1l6.6,3.5l2.7-5.1l-9.1-4.8c-0.1-0.1-0.1-0.1-0.1-0.2l1-1.8
		c0.1-0.1,0.1-0.1,0.2-0.1l11.2,5.9c0.1,0.1,0.1,0.1,0.1,0.2l-8.7,16.3c-0.1,0.1-0.1,0.1-0.2,0.1L95.1,263.9z"/>
</g>
<g class="st3">
	<path class="st0" d="M89.7,250.6c-0.1-0.2-0.2-0.3-0.2-0.4l-0.2-0.4c-0.2-0.3-0.3-0.6-0.5-0.8c-0.3-0.7-0.6-1.3-0.7-1.9
		c-0.4-1.6-0.2-3,0.7-4.2c0.9-1.3,2.1-2,3.6-2.1c1.5-0.1,3,0.4,4.5,1.5c1.2,0.8,2.1,1.9,2.7,3.1c0.2,0.4,0.4,0.9,0.6,1.3
		c0.1,0.2,0.1,0.3,0.2,0.5c0,0.1,0.1,0.2,0.1,0.4c0,0.1,0,0.2-0.1,0.2l-2.1,0.2c-0.1,0-0.2,0-0.2-0.1c0-0.1,0-0.2-0.1-0.3
		c0-0.1-0.1-0.2-0.1-0.3c-0.1-0.3-0.3-0.6-0.4-0.9c-0.5-0.8-1.1-1.5-1.9-2.1c-2.1-1.5-3.6-1.5-4.7,0.1c-0.4,0.6-0.5,1.3-0.3,2.1
		c0.2,0.7,0.6,1.7,1.4,2.9l0,0l0.3,0.6l0.2,0.3l0.2,0.3c0.2,0.3,0.3,0.5,0.4,0.8c0.3,0.6,0.5,1.2,0.7,1.7c0.4,1.4,0.2,2.7-0.6,3.8
		c-0.9,1.2-1.9,1.8-3.2,1.9c-1.3,0.1-2.7-0.4-4.1-1.4c-1-0.7-1.8-1.7-2.4-2.8c-0.2-0.4-0.4-0.8-0.5-1.2c-0.1-0.1-0.1-0.3-0.1-0.4
		c0-0.1,0-0.2-0.1-0.3c0-0.1,0-0.2,0.1-0.2l1-0.1l1-0.1c0.1,0,0.2,0,0.2,0.1c0,0.1,0,0.2,0,0.2c0,0.1,0.1,0.2,0.1,0.3
		c0.1,0.3,0.2,0.5,0.4,0.8c0.4,0.7,0.9,1.3,1.6,1.8c1.7,1.3,3.1,1.3,4,0c0.4-0.5,0.4-1.1,0.3-1.8c-0.1-0.6-0.6-1.4-1.2-2.5l0,0
		L89.7,250.6z"/>
</g>
<g class="st3">
	<path class="st0" d="M70.2,244.5c-1.1-1.1-1.7-2.4-1.7-3.9c0-1.5,0.5-2.8,1.6-3.9c1-1,2.3-1.5,3.8-1.5c1.5,0,2.8,0.6,3.9,1.6
		l3.4,3.3l5.5-5.7c0.1-0.1,0.2-0.1,0.2,0l1.5,1.5c0.1,0.1,0.1,0.2,0,0.2l-12.8,13.4c-0.1,0.1-0.2,0.1-0.2,0L70.2,244.5z M76,238.5
		c-0.6-0.6-1.3-0.9-2.2-0.9c-0.8,0-1.5,0.3-2.1,0.9c-0.6,0.6-0.8,1.3-0.8,2.1c0,0.8,0.3,1.5,1,2.1l3.5,3.4l4.1-4.3L76,238.5z"/>
</g>
<g class="st3">
	<path class="st0" d="M68.4,214c0-0.1,0.1-0.1,0.1-0.1c0.1,0,0.1,0,0.2,0.1l1.5,1.9c0,0.1,0.1,0.1,0,0.2l-3.6,8.5l0,0l2.1,2.6
		l6.3-4.9c0.1-0.1,0.2-0.1,0.2,0l1.3,1.6c0.1,0.1,0.1,0.2,0,0.2l-14.5,11.4c-0.1,0.1-0.2,0.1-0.2,0l-4.4-5.6c-1-1.2-1.3-2.6-1.2-4.1
		s0.9-2.7,2.1-3.6c1-0.7,2.1-1.1,3.3-1c1.2,0.1,2.3,0.5,3.3,1.2L68.4,214z M63.8,224.9c-0.5-0.7-1.2-1-2-1.1
		c-0.8-0.1-1.6,0.1-2.2,0.6c-0.6,0.5-1,1.2-1.1,2c-0.1,0.8,0.1,1.6,0.6,2.2l3,3.8l4.6-3.7L63.8,224.9z"/>
</g>
<g class="st3">
	<path class="st0" d="M43.7,209c-0.1-0.1,0-0.2,0.1-0.2l1.8-1c0.1-0.1,0.2,0,0.2,0.1l5.1,8.9l5.1-2.9l-3.7-6.4
		c-0.1-0.1,0-0.2,0.1-0.2l1.8-1c0.1-0.1,0.2,0,0.2,0.1l3.7,6.4l5.1-2.9l-5.1-8.9c-0.1-0.1,0-0.2,0.1-0.2l1.8-1
		c0.1-0.1,0.2,0,0.2,0.1l6.3,10.8c0.1,0.1,0,0.2-0.1,0.2l-16,9.3c-0.1,0.1-0.2,0-0.2-0.1L43.7,209z"/>
</g>
<g class="st3">
	<path class="st0" d="M46.1,194.7c0-0.2,0-0.3,0-0.4l0-0.4c0-0.3,0-0.7,0.1-1c0.1-0.8,0.2-1.4,0.4-2c0.5-1.6,1.4-2.6,2.8-3.2
		c1.5-0.6,2.9-0.6,4.2,0.1c1.3,0.7,2.3,1.9,3.1,3.7c0.5,1.3,0.8,2.7,0.7,4.1c0,0.5-0.1,1-0.2,1.4c0,0.2-0.1,0.3-0.1,0.5
		c0,0.1-0.1,0.2-0.1,0.3c0,0.1-0.1,0.1-0.2,0.1l-1.9-0.9c-0.1,0-0.1-0.1-0.1-0.2c0-0.1,0.1-0.2,0.1-0.3c0-0.1,0.1-0.2,0.1-0.4
		c0.1-0.3,0.1-0.7,0.1-1c0-1-0.1-1.9-0.5-2.8c-1-2.4-2.3-3.2-4.1-2.5c-0.7,0.3-1.1,0.8-1.4,1.6c-0.2,0.7-0.3,1.8-0.4,3.2l0,0l0,0.7
		l0,0.4l0,0.4c0,0.3,0,0.6-0.1,0.9c-0.1,0.7-0.2,1.3-0.3,1.8c-0.4,1.4-1.3,2.4-2.6,2.9c-1.4,0.6-2.6,0.5-3.8-0.1
		c-1.2-0.6-2.1-1.7-2.8-3.4c-0.5-1.2-0.7-2.4-0.6-3.6c0-0.4,0.1-0.9,0.2-1.3c0-0.2,0.1-0.3,0.1-0.5c0-0.1,0.1-0.2,0.1-0.3
		c0-0.1,0.1-0.2,0.2-0.1l0.9,0.4l1,0.4c0.1,0,0.1,0.1,0.1,0.2c0,0.1-0.1,0.1-0.1,0.2c0,0.1-0.1,0.2-0.1,0.3
		c-0.1,0.3-0.1,0.6-0.1,0.9c0,0.8,0.1,1.6,0.4,2.4c0.8,2,2,2.7,3.4,2.1c0.6-0.2,1-0.7,1.2-1.4c0.2-0.6,0.3-1.5,0.3-2.8l0,0
		L46.1,194.7z"/>
</g>
<g class="st3">
	<path class="st0" d="M40.9,178.9c0-0.2,0-0.3,0.1-0.4L41,178c0.1-0.3,0.1-0.7,0.2-0.9c0.2-0.7,0.4-1.4,0.6-1.9
		c0.7-1.5,1.8-2.4,3.2-2.8c1.6-0.4,2.9-0.2,4.1,0.6c1.2,0.8,2,2.2,2.5,4.1c0.4,1.4,0.4,2.8,0.1,4.1c-0.1,0.5-0.2,0.9-0.4,1.4
		c-0.1,0.2-0.1,0.3-0.2,0.5c-0.1,0.1-0.1,0.2-0.2,0.3c-0.1,0.1-0.1,0.1-0.2,0.1l-1.8-1.1c-0.1-0.1-0.1-0.1-0.1-0.2
		c0-0.1,0.1-0.2,0.1-0.2c0-0.1,0.1-0.2,0.1-0.3c0.1-0.3,0.2-0.6,0.3-1c0.2-0.9,0.1-1.9-0.1-2.9c-0.6-2.5-1.9-3.4-3.7-3
		c-0.7,0.2-1.2,0.7-1.6,1.4c-0.3,0.7-0.6,1.7-0.8,3.1l0,0l-0.1,0.7l-0.1,0.4l-0.1,0.4c-0.1,0.3-0.1,0.6-0.2,0.9
		c-0.1,0.7-0.3,1.2-0.6,1.7c-0.6,1.3-1.6,2.2-2.9,2.5c-1.4,0.4-2.7,0.2-3.8-0.6c-1.1-0.8-1.9-2-2.3-3.7c-0.3-1.2-0.4-2.5-0.1-3.7
		c0.1-0.4,0.2-0.9,0.4-1.3c0.1-0.1,0.1-0.3,0.2-0.4c0.1-0.1,0.1-0.2,0.2-0.3c0.1-0.1,0.1-0.1,0.2-0.1l0.9,0.5l0.9,0.6
		c0.1,0.1,0.1,0.1,0.1,0.2c0,0.1-0.1,0.1-0.1,0.2c0,0.1-0.1,0.2-0.1,0.3c-0.1,0.3-0.2,0.6-0.2,0.8c-0.1,0.8-0.1,1.6,0.1,2.4
		c0.5,2.1,1.6,2.9,3.1,2.5c0.6-0.2,1-0.6,1.4-1.2c0.3-0.5,0.5-1.4,0.7-2.7l0,0L40.9,178.9z"/>
</g>
<g class="st3">
	<path class="st0" d="M29.4,160.5c-0.3-2.7,0.4-5,2.1-7.1c1.7-2.1,3.8-3.2,6.4-3.5s4.9,0.5,6.9,2.2c2,1.7,3.2,3.9,3.4,6.5
		c0.3,2.7-0.4,5-2.1,7.1c-1.7,2.1-3.8,3.2-6.4,3.5c-2.6,0.3-4.9-0.5-6.9-2.2C30.8,165.4,29.7,163.2,29.4,160.5z M45.9,158.9
		c-0.2-2-1-3.6-2.6-4.9c-1.5-1.3-3.2-1.8-5.2-1.6c-1.9,0.2-3.5,1.1-4.8,2.6c-1.2,1.5-1.8,3.3-1.6,5.3c0.2,2,1,3.6,2.6,4.9
		c1.5,1.3,3.2,1.8,5.2,1.6c1.9-0.2,3.5-1.1,4.8-2.6C45.6,162.6,46.1,160.9,45.9,158.9z"/>
</g>
</svg>
